<svg width="65" height="65" viewBox="0 0 65 65" fill="none" xmlns="http://www.w3.org/2000/svg">
<rect x="0.310547" y="0.552002" width="64" height="64" rx="13.3954" fill="#2BCC89"/>
<path d="M42.3355 38.7368C47.3964 36.2236 51.8256 33.652 52.0804 28.8947C52.2257 26.2022 51.1664 23.858 49.3004 22.5315C45.5599 19.8724 39.6123 20.5711 36.1161 23.6181C32.5968 26.6861 31.8196 30.6675 32.4304 35.0056C32.5252 35.673 32.8853 36.6428 33.0728 37.2581C30.775 38.1757 27.5379 39.0475 24.7621 39.2269C23.1783 39.3291 21.6092 39.0913 20.236 38.6241C20.236 38.6241 24.6504 36.8868 27.3968 34.5488C31.4237 31.1222 30.8045 24.8341 27.5632 22.5315C23.8227 19.8724 17.8751 20.5711 14.3789 23.6181C10.8596 26.6861 10.0825 30.6675 10.6932 35.0056C11.1713 38.4072 12.8288 41.1811 15.9796 42.7119C18.2984 43.8382 20.5267 44.2136 23.9617 44.2136C29.206 44.2136 33.7257 42.1613 35.7749 41.4522C36.3478 41.9319 39.4606 44.2198 44.1025 44.2198C47.0447 44.2198 50.9326 43.8402 54.117 41.8151C53.184 40.424 52.4785 38.8973 52.0846 37.3436C50.0628 38.4844 46.1644 39.8734 42.3355 38.7368ZM18.5174 27.8269C19.5579 26.3712 21.7819 25.2449 23.4668 26.3586C25.2275 27.5245 24.4504 29.4516 23.5005 30.5403C21.7924 32.4903 19.621 33.4122 17.3338 34.3215C17.1948 33.1849 17.0684 29.8562 18.5174 27.8269ZM40.2567 27.8269C41.2971 26.3712 43.5212 25.2449 45.2061 26.3586C46.9668 27.5245 46.3202 29.852 45.3683 30.9386C43.6602 32.8887 41.5372 33.8356 39.25 34.7449C38.7235 32.8595 38.8056 29.8562 40.2567 27.8269Z" fill="white"/>
</svg>
